<svg id="Layer_1" enable-background="new 0 0 510 510" height="512" viewBox="0 0 510 510" width="512" xmlns="http://www.w3.org/2000/svg"><g id="XMLID_1_"><path id="XMLID_39_" d="m240 30v15.489l8.242 9.731 6.758-10.22 10-7.625-10-7.375-7.375-10z" fill="#eae7ea"/><path id="XMLID_38_" d="m270 30-7.5-10-7.5 10v15l7.496 10.244 7.504-9.755z" fill="#dddadf"/><path id="XMLID_37_" d="m128.028 510h-53.028v-30h36.972l16.095-24.143 13.206-2.192 12.656 17.483z" fill="#eae7ea"/><path id="XMLID_35_" d="m435 510h-53.027l-25.901-38.851 14.306-18.458 11.557 3.169 16.092 24.14h36.973z" fill="#dddadf"/><path id="XMLID_34_" d="m41.464 198.751c-16.938-16.803-26.464-39.49-26.464-63.751 0-49.626 40.374-90 90-90 20.977 0 40.747 7.072 56.723 20.112z" fill="#ff7b4a"/><path id="XMLID_33_" d="m348.275 65.113c15.977-13.041 35.746-20.113 56.725-20.113 49.626 0 90 40.374 90 90 0 24.26-9.525 46.947-26.462 63.749z" fill="#ff435b"/><path id="XMLID_32_" d="m30 270c0 60.1 23.404 116.602 65.901 159.099s98.999 65.901 159.099 65.901l10-234.697-10-215.303c-124.351 0-225 100.632-225 225z" fill="#4a5f73"/><path id="XMLID_31_" d="m255 45v450c60.1 0 116.602-23.404 159.099-65.901s65.901-98.999 65.901-159.099c0-124.35-100.632-225-225-225z" fill="#263442"/><path id="XMLID_30_" d="m149.468 396.746c25.016 20.864 56.28 34.477 90.531 37.578l15.001-59.324 10-109.333-10-100.667-15.001-59.324c-34.251 3.101-65.515 16.714-90.531 37.578l-2.083 21.134-19.131.081c-20.864 25.016-34.477 56.28-37.578 90.531l9.324 15-9.324 15.002c3.101 34.251 16.713 65.514 37.577 90.529l22.142 3.065z" fill="#f4f1f1"/><path id="XMLID_29_" d="m360.993 377.24 20.753-1.708c20.864-25.016 34.477-56.28 37.578-90.531l-10.324-15.001 10.336-14.874c-3.079-34.302-16.7-65.612-37.591-90.659l-19.877-.834-1.334-20.377c-25.017-20.865-56.281-34.478-90.533-37.58l-15.001 59.323v210.001l15.001 59.324c34.252-3.102 65.516-16.714 90.531-37.578z" fill="#eae7ea"/><path id="XMLID_28_" d="m339.852 206.36 41.888-41.888c-6.417-7.694-13.52-14.796-21.213-21.213l-41.888 41.888z" fill="#dddadf"/><path id="XMLID_26_" d="m170.147 333.64-41.888 41.888c6.417 7.693 13.519 14.796 21.213 21.213l41.888-41.888z" fill="#eae7ea"/><path id="XMLID_13_" d="m360 285h59.31c.448-4.942.69-9.943.69-15s-.241-10.058-.69-15h-59.31z" fill="#dddadf"/><path id="XMLID_12_" d="m150 255h-59.311c-.918 10.136-.919 19.854 0 30h59.311z" fill="#eae7ea"/><path id="XMLID_11_" d="m318.64 354.853 41.888 41.888c7.693-6.417 14.796-13.52 21.213-21.213l-41.888-41.888z" fill="#dddadf"/><path id="XMLID_10_" d="m191.36 185.148-41.888-41.888c-7.694 6.417-14.796 13.519-21.213 21.213l41.888 41.888z" fill="#eae7ea"/><path id="XMLID_9_" d="m240 263.787-25.606 25.607 21.212 21.212 19.394-19.393 10-36.212-10-45.001h-15z" fill="#ff7b4a"/><path id="XMLID_8_" d="m270 276.213v-66.213h-15v81.213z" fill="#ff435b"/><path id="XMLID_6_" d="m240 105.689v59.311h15l4.211-30-4.211-30c-5.01 0-10.01.237-15 .689z" fill="#eae7ea"/><path id="XMLID_4_" d="m240 434.31c2.482.226 4.98.399 7.492.515 2.488.115 4.991.175 7.508.175l10-30-10-30h-7.5-7.5v29.655z" fill="#eae7ea"/><path id="XMLID_3_" d="m210 0v30h45l10-15-10-15z" fill="#f4f1f1"/><path id="XMLID_2_" d="m255 0h45v30h-45z" fill="#eae7ea"/><g fill="#dddadf"><path id="XMLID_7_" d="m270 105.689c-4.942-.447-9.943-.689-15-.689v60h15z"/><path id="XMLID_5_" d="m270 434.31v-59.31h-15v60c5.057 0 10.058-.241 15-.69z"/></g></g></svg>