<?xml version="1.0" standalone="no"?>
<!DOCTYPE svg PUBLIC "-//W3C//DTD SVG 20010904//EN"
 "http://www.w3.org/TR/2001/REC-SVG-20010904/DTD/svg10.dtd">
<svg version="1.0" xmlns="http://www.w3.org/2000/svg"
 width="1200.000000pt" height="1200.000000pt" viewBox="0 0 1200.000000 1200.000000"
 preserveAspectRatio="xMidYMid meet">

<g transform="translate(0.000000,1200.000000) scale(0.100000,-0.100000)"
fill="#000000" stroke="none">
<path d="M1306 9730 c-39 -10 -108 -38 -155 -61 -71 -35 -103 -60 -182 -138
-83 -84 -102 -109 -142 -191 -60 -126 -77 -200 -77 -340 0 -140 17 -214 77
-340 40 -82 59 -108 142 -191 83 -83 109 -102 191 -142 178 -85 -322 -77 4843
-77 4560 0 4605 0 4683 20 138 35 236 91 345 200 84 83 102 108 142 190 57
119 77 209 77 346 0 133 -18 210 -77 334 -40 82 -58 107 -142 190 -101 100
-170 144 -301 192 l-65 23 -4645 2 c-4511 2 -4647 1 -4714 -17z"/>
<path d="M1306 6730 c-39 -10 -108 -38 -155 -61 -71 -35 -103 -60 -182 -138
-83 -84 -102 -109 -142 -191 -60 -126 -77 -200 -77 -340 0 -140 17 -214 77
-340 40 -82 59 -108 142 -191 83 -83 109 -102 191 -142 178 -85 -322 -77 4843
-77 4560 0 4605 0 4683 20 138 35 236 91 345 200 84 83 102 108 142 190 57
119 77 209 77 346 0 133 -18 210 -77 334 -40 82 -58 107 -142 190 -101 100
-170 144 -301 192 l-65 23 -4645 2 c-4511 2 -4647 1 -4714 -17z"/>
<path d="M1306 3730 c-39 -10 -108 -38 -155 -61 -71 -35 -103 -60 -182 -138
-83 -84 -102 -109 -142 -191 -60 -126 -77 -200 -77 -340 0 -140 17 -214 77
-340 40 -82 59 -108 142 -191 83 -83 109 -102 191 -142 178 -85 -322 -77 4843
-77 4560 0 4605 0 4683 20 138 35 236 91 345 200 84 83 102 108 142 190 57
119 77 209 77 346 0 133 -18 210 -77 334 -40 82 -58 107 -142 190 -101 100
-170 144 -301 192 l-65 23 -4645 2 c-4511 2 -4647 1 -4714 -17z"/>
</g>
</svg>
