<?xml version="1.0" standalone="no"?>
<!DOCTYPE svg PUBLIC "-//W3C//DTD SVG 20010904//EN"
 "http://www.w3.org/TR/2001/REC-SVG-20010904/DTD/svg10.dtd">
<svg version="1.0" xmlns="http://www.w3.org/2000/svg"
 width="155.000000pt" height="160.000000pt" viewBox="0 0 155.000000 160.000000"
 preserveAspectRatio="xMidYMid meet">

<g transform="translate(0.000000,160.000000) scale(0.100000,-0.100000)"
fill="#000000" stroke="none">
<path d="M700 1273 c0 -5 -88 -97 -195 -205 -107 -109 -195 -204 -195 -212 0
-7 6 -19 14 -25 12 -10 48 21 201 171 103 101 193 183 200 183 10 0 267 -229
379 -339 34 -32 58 -27 64 14 3 18 -10 37 -57 80 l-61 56 0 72 c0 44 4 72 11
72 6 0 9 10 7 23 -3 20 -9 22 -72 25 l-69 3 7 -42 7 -41 -53 43 c-29 24 -72
63 -97 87 -40 37 -91 57 -91 35z"/>
<path d="M552 968 l-172 -170 0 -224 0 -224 124 0 c104 0 125 3 130 16 3 9 6
105 6 215 l0 199 105 0 105 0 0 -215 0 -215 130 0 130 0 0 225 c0 124 -4 225
-9 225 -5 0 -51 39 -103 88 -52 48 -135 124 -184 169 l-90 81 -172 -170z"/>
<path d="M350 280 l0 -30 395 0 395 0 0 30 0 30 -395 0 -395 0 0 -30z"/>
</g>
</svg>
