<?xml version="1.0" standalone="no"?>
<!DOCTYPE svg PUBLIC "-//W3C//DTD SVG 20010904//EN"
 "http://www.w3.org/TR/2001/REC-SVG-20010904/DTD/svg10.dtd">
<svg version="1.0" xmlns="http://www.w3.org/2000/svg"
 width="155.000000pt" height="160.000000pt" viewBox="0 0 155.000000 160.000000"
 preserveAspectRatio="xMidYMid meet">

<g transform="translate(0.000000,160.000000) scale(0.100000,-0.100000)"
fill="#000000" stroke="none">
<path d="M553 1199 c-61 -24 -132 -89 -164 -150 -31 -60 -38 -178 -15 -247 22
-65 93 -145 160 -179 67 -34 153 -41 230 -19 l58 17 143 -140 c148 -145 165
-156 220 -135 24 9 46 60 39 88 -3 14 -69 86 -145 161 l-140 137 22 45 c72
149 1 341 -156 414 -75 36 -171 39 -252 8z m183 -94 c86 -25 144 -105 144
-197 -1 -125 -85 -208 -211 -208 -63 0 -108 21 -153 70 -102 114 -48 295 102
340 41 12 63 11 118 -5z"/>
</g>
</svg>
