<?xml version="1.0" standalone="no"?>
<!DOCTYPE svg PUBLIC "-//W3C//DTD SVG 20010904//EN"
 "http://www.w3.org/TR/2001/REC-SVG-20010904/DTD/svg10.dtd">
<svg version="1.0" xmlns="http://www.w3.org/2000/svg"
 width="155.000000pt" height="160.000000pt" viewBox="0 0 155.000000 160.000000"
 preserveAspectRatio="xMidYMid meet">

<g transform="translate(0.000000,160.000000) scale(0.100000,-0.100000)"
fill="#000000" stroke="none">
<path d="M560 1054 c-83 -158 -91 -178 -77 -191 9 -9 22 -13 30 -10 9 3 48 70
88 149 40 79 79 156 87 171 17 33 10 57 -16 57 -15 0 -42 -42 -112 -176z"/>
<path d="M906 1215 c-3 -9 32 -89 84 -188 67 -129 94 -173 110 -175 40 -7 33
28 -35 161 -37 72 -79 151 -92 175 -25 43 -56 55 -67 27z"/>
<path d="M355 914 c-12 -12 -15 -32 -13 -78 3 -54 6 -62 28 -73 24 -11 28 -22
44 -125 10 -62 22 -139 28 -170 l10 -58 344 0 344 0 5 23 c2 12 14 78 25 147
28 174 30 180 45 180 40 0 60 104 29 148 -12 18 -25 22 -64 22 l-49 0 11 -30
c8 -26 7 -34 -7 -50 -33 -37 -64 -22 -99 48 l-17 32 -217 0 -217 0 -25 -45
c-27 -50 -49 -62 -81 -45 -18 10 -21 18 -16 51 l5 39 -48 0 c-31 0 -54 -6 -65
-16z m233 -323 c2 -76 -1 -107 -10 -112 -28 -17 -38 12 -38 111 0 100 3 113
30 108 12 -3 16 -23 18 -107z m120 3 c2 -80 0 -104 -12 -113 -28 -24 -36 -2
-36 103 0 106 3 119 30 114 12 -3 16 -22 18 -104z m110 -3 c3 -106 -3 -126
-35 -114 -10 4 -13 31 -13 107 0 106 3 119 30 114 12 -3 16 -23 18 -107z m110
97 c18 -18 16 -192 -3 -208 -27 -23 -35 0 -35 104 0 116 7 135 38 104z m120
-97 c3 -106 -3 -126 -35 -114 -10 4 -13 31 -13 107 0 106 3 119 30 114 12 -3
16 -23 18 -107z"/>
</g>
</svg>
